<svg width="57" height="56" viewBox="0 0 57 56" fill="none" xmlns="http://www.w3.org/2000/svg">
<path d="M51.8335 19.8333C51.8323 16.6746 50.8449 13.595 49.009 11.0245C47.1732 8.45394 44.5806 6.52076 41.5931 5.49477C38.6055 4.46879 35.3722 4.40119 32.3445 5.30142C29.3167 6.20166 26.6455 8.02479 24.7039 10.5163C30.5609 10.7466 36.0884 13.2874 40.0768 17.5829C44.0653 21.8783 46.19 27.5786 45.9862 33.4367L46.7632 33.642C47.2771 33.779 47.8179 33.7785 48.3315 33.6405C48.8451 33.5025 49.3134 33.232 49.6894 32.8559C50.0655 32.4799 50.3361 32.0116 50.474 31.498C50.612 30.9844 50.6125 30.4435 50.4755 29.9297L50.1792 28.819C49.9389 27.9207 50.0859 26.9733 50.4709 26.1287C51.3722 24.1525 51.8369 22.0053 51.8335 19.8333Z" fill="#D1D1D1"/>
<path fill-rule="evenodd" clip-rule="evenodd" d="M42.5001 32.6667C42.5009 35.8209 41.7025 38.9238 40.1793 41.6859C38.6561 44.4479 36.4579 46.7789 33.7899 48.4613C31.1218 50.1437 28.071 51.1226 24.9221 51.3066C21.7733 51.4905 18.6292 50.8736 15.7834 49.5133C14.9537 49.0958 14.0021 48.9883 13.1001 49.21L10.2371 49.9777C9.72298 50.1149 9.18184 50.1144 8.66797 49.9763C8.15411 49.8383 7.6856 49.5675 7.30948 49.1911C6.93336 48.8147 6.66285 48.3461 6.52511 47.8321C6.38737 47.3182 6.38724 46.777 6.52475 46.263L7.29008 43.4C7.51204 42.498 7.40446 41.5464 6.98675 40.7167C5.78035 38.1887 5.15835 35.4216 5.16683 32.6206C5.17532 29.8195 5.81408 27.0563 7.03577 24.5357C8.25745 22.0151 10.0307 19.8017 12.2242 18.0597C14.4177 16.3176 16.9751 15.0915 19.7068 14.4723C22.4386 13.8531 25.2747 13.8566 28.0049 14.4826C30.7352 15.1085 33.2895 16.3409 35.4787 18.0884C37.6678 19.8358 39.4357 22.0535 40.6511 24.5772C41.8666 27.1008 42.4985 29.8656 42.5001 32.6667ZM15.6667 35C16.2856 35 16.8791 34.7542 17.3167 34.3166C17.7542 33.879 18.0001 33.2855 18.0001 32.6667C18.0001 32.0478 17.7542 31.4543 17.3167 31.0168C16.8791 30.5792 16.2856 30.3333 15.6667 30.3333C15.0479 30.3333 14.4544 30.5792 14.0168 31.0168C13.5792 31.4543 13.3334 32.0478 13.3334 32.6667C13.3334 33.2855 13.5792 33.879 14.0168 34.3166C14.4544 34.7542 15.0479 35 15.6667 35ZM23.8334 35C24.4523 35 25.0457 34.7542 25.4833 34.3166C25.9209 33.879 26.1667 33.2855 26.1667 32.6667C26.1667 32.0478 25.9209 31.4543 25.4833 31.0168C25.0457 30.5792 24.4523 30.3333 23.8334 30.3333C23.2146 30.3333 22.6211 30.5792 22.1835 31.0168C21.7459 31.4543 21.5001 32.0478 21.5001 32.6667C21.5001 33.2855 21.7459 33.879 22.1835 34.3166C22.6211 34.7542 23.2146 35 23.8334 35ZM32.0001 35C32.6189 35 33.2124 34.7542 33.65 34.3166C34.0876 33.879 34.3334 33.2855 34.3334 32.6667C34.3334 32.0478 34.0876 31.4543 33.65 31.0168C33.2124 30.5792 32.6189 30.3333 32.0001 30.3333C31.3812 30.3333 30.7878 30.5792 30.3502 31.0168C29.9126 31.4543 29.6667 32.0478 29.6667 32.6667C29.6667 33.2855 29.9126 33.879 30.3502 34.3166C30.7878 34.7542 31.3812 35 32.0001 35Z" fill="#D1D1D1"/>
</svg>
