<svg width="57" height="56" viewBox="0 0 57 56" fill="none" xmlns="http://www.w3.org/2000/svg">
<g clip-path="url(#clip0_306_4975)">
<path d="M0.5 28V39.2C0.5 40.7488 1.75125 42 3.3 42H6.1V25.2H3.3C1.75125 25.2 0.5 26.4513 0.5 28ZM41.1 14H31.3V8.40001C31.3 6.85126 30.0487 5.60001 28.5 5.60001C26.9513 5.60001 25.7 6.85126 25.7 8.40001V14H15.9C12.0325 14 8.9 17.1325 8.9 21V44.8C8.9 47.8888 11.4113 50.4 14.5 50.4H42.5C45.5887 50.4 48.1 47.8888 48.1 44.8V21C48.1 17.1325 44.9675 14 41.1 14ZM22.9 42H17.3V39.2H22.9V42ZM20.1 31.5C18.1663 31.5 16.6 29.9338 16.6 28C16.6 26.0663 18.1663 24.5 20.1 24.5C22.0338 24.5 23.6 26.0663 23.6 28C23.6 29.9338 22.0338 31.5 20.1 31.5ZM31.3 42H25.7V39.2H31.3V42ZM39.7 42H34.1V39.2H39.7V42ZM36.9 31.5C34.9662 31.5 33.4 29.9338 33.4 28C33.4 26.0663 34.9662 24.5 36.9 24.5C38.8337 24.5 40.4 26.0663 40.4 28C40.4 29.9338 38.8337 31.5 36.9 31.5ZM53.7 25.2H50.9V42H53.7C55.2487 42 56.5 40.7488 56.5 39.2V28C56.5 26.4513 55.2487 25.2 53.7 25.2Z" fill="#D1D1D1"/>
</g>
<defs>
<clipPath id="clip0_306_4975">
<rect width="56" height="56" fill="white" transform="translate(0.5)"/>
</clipPath>
</defs>
</svg>
