<svg width="57" height="56" viewBox="0 0 57 56" fill="none" xmlns="http://www.w3.org/2000/svg">
<path d="M23.8333 7H9.83333C9.21449 7 8.621 7.24583 8.18342 7.68342C7.74583 8.121 7.5 8.71449 7.5 9.33333V23.3333C7.5 23.9522 7.74583 24.5457 8.18342 24.9832C8.621 25.4208 9.21449 25.6667 9.83333 25.6667H23.8333C24.4522 25.6667 25.0457 25.4208 25.4832 24.9832C25.9208 24.5457 26.1667 23.9522 26.1667 23.3333V9.33333C26.1667 8.71449 25.9208 8.121 25.4832 7.68342C25.0457 7.24583 24.4522 7 23.8333 7ZM47.1667 7H33.1667C32.5478 7 31.9543 7.24583 31.5168 7.68342C31.0792 8.121 30.8333 8.71449 30.8333 9.33333V23.3333C30.8333 23.9522 31.0792 24.5457 31.5168 24.9832C31.9543 25.4208 32.5478 25.6667 33.1667 25.6667H47.1667C47.7855 25.6667 48.379 25.4208 48.8166 24.9832C49.2542 24.5457 49.5 23.9522 49.5 23.3333V9.33333C49.5 8.71449 49.2542 8.121 48.8166 7.68342C48.379 7.24583 47.7855 7 47.1667 7ZM23.8333 30.3333H9.83333C9.21449 30.3333 8.621 30.5792 8.18342 31.0168C7.74583 31.4543 7.5 32.0478 7.5 32.6667V46.6667C7.5 47.2855 7.74583 47.879 8.18342 48.3166C8.621 48.7542 9.21449 49 9.83333 49H23.8333C24.4522 49 25.0457 48.7542 25.4832 48.3166C25.9208 47.879 26.1667 47.2855 26.1667 46.6667V32.6667C26.1667 32.0478 25.9208 31.4543 25.4832 31.0168C25.0457 30.5792 24.4522 30.3333 23.8333 30.3333ZM42.5 33.6667C42.5 33.1144 42.0523 32.6667 41.5 32.6667H38.8333C38.281 32.6667 37.8333 33.1144 37.8333 33.6667V37.3333H34.1667C33.6144 37.3333 33.1667 37.781 33.1667 38.3333V41C33.1667 41.5523 33.6144 42 34.1667 42H37.8333V45.6667C37.8333 46.219 38.281 46.6667 38.8333 46.6667H41.5C42.0523 46.6667 42.5 46.2189 42.5 45.6667V42H46.1667C46.719 42 47.1667 41.5523 47.1667 41V38.3333C47.1667 37.781 46.7189 37.3333 46.1667 37.3333H42.5V33.6667Z" fill="#D1D1D1"/>
</svg>
