<svg width="20" height="20" viewBox="0 0 20 20" fill="none" xmlns="http://www.w3.org/2000/svg">
<g clip-path="url(#clip0_114_8492)">
<path d="M17.4763 3.29532C17.5065 3.18841 17.5076 3.0754 17.4795 2.96792C17.4514 2.86045 17.3953 2.76239 17.3167 2.68385C17.2382 2.60531 17.1401 2.54912 17.0326 2.52106C16.9252 2.493 16.8122 2.4941 16.7052 2.52422L1.70524 7.07266C1.58278 7.10722 1.47378 7.17834 1.39282 7.27651C1.31186 7.37468 1.2628 7.49522 1.25218 7.62202C1.24156 7.74882 1.2699 7.87584 1.33341 7.98611C1.39692 8.09637 1.49258 8.18462 1.60759 8.23907L8.29665 11.4063C8.42688 11.468 8.53176 11.5729 8.59352 11.7031L11.7615 18.3914C11.8159 18.5064 11.9042 18.6021 12.0145 18.6656C12.1247 18.7291 12.2517 18.7574 12.3785 18.7468C12.5053 18.7362 12.6259 18.6871 12.7241 18.6062C12.8222 18.5252 12.8933 18.4162 12.9279 18.2938L17.4763 3.29532Z" stroke="#757985" stroke-width="1.5" stroke-linecap="round" stroke-linejoin="round"/>
<path d="M8.46875 11.5297L12.4984 7.5" stroke="#757985" stroke-width="1.5" stroke-linecap="round" stroke-linejoin="round"/>
</g>
<defs>
<clipPath id="clip0_114_8492">
<rect width="20" height="20" fill="white"/>
</clipPath>
</defs>
</svg>
