<svg width="20" height="21" viewBox="0 0 20 21" fill="none" xmlns="http://www.w3.org/2000/svg">
<path d="M12.994 3.02266C12.2338 2.20195 11.1721 1.75 10.0002 1.75C8.8221 1.75 7.75686 2.19922 7.00022 3.01484C6.23538 3.83945 5.86272 4.96016 5.95022 6.17031C6.12366 8.55781 7.94046 10.5 10.0002 10.5C12.06 10.5 13.8737 8.5582 14.0498 6.17109C14.1385 4.97187 13.7635 3.85352 12.994 3.02266ZM16.8752 19.25H3.12522C2.94525 19.2523 2.76702 19.2145 2.60349 19.1393C2.43997 19.0641 2.29526 18.9534 2.17991 18.8152C1.926 18.5117 1.82366 18.0973 1.89944 17.6781C2.22913 15.8492 3.25804 14.3129 4.87522 13.2344C6.31194 12.277 8.13186 11.75 10.0002 11.75C11.8686 11.75 13.6885 12.2773 15.1252 13.2344C16.7424 14.3125 17.7713 15.8488 18.101 17.6777C18.1768 18.0969 18.0744 18.5113 17.8205 18.8148C17.7052 18.9531 17.5605 19.0639 17.397 19.1391C17.2335 19.2144 17.0552 19.2523 16.8752 19.25Z" fill="#757985"/>
</svg>
